<?xml version="1.0" encoding="UTF-8"?>
<svg id="Layer_1" data-name="Layer 1" xmlns="http://www.w3.org/2000/svg" xmlns:xlink="http://www.w3.org/1999/xlink" viewBox="0 0 90.73 63.3">
  <defs>
    <style>
      .cls-1 {
        fill: url(#linear-gradient-2);
      }

      .cls-2 {
        fill: #231f20;
      }

      .cls-3 {
        fill: none;
      }

      .cls-4 {
        clip-path: url(#clippath-1);
      }

      .cls-5 {
        fill: url(#linear-gradient);
      }

      .cls-6 {
        clip-path: url(#clippath);
      }
    </style>
    <clipPath id="clippath">
      <path class="cls-3" d="M30.1,3.81c-.79,0-1.58.08-2.37.17-1.38.15-2.74.43-4.08.79-2.02.55-3.95,1.34-5.79,2.33-2.32,1.25-4.41,2.8-6.29,4.64-.55.53-1.06,1.1-1.57,1.68-1.61,1.84-2.93,3.87-4,6.07-.96,1.98-1.67,4.05-2.14,6.2-.42,1.9-.6,3.83-.65,5.77,0,.31.03.63.03.95,0,.87.08,1.74.17,2.6.18,1.6.51,3.17.97,4.71.81,2.74,2.03,5.28,3.63,7.65,1.28,1.9,2.78,3.6,4.48,5.13,1.85,1.66,3.88,3.05,6.1,4.17,1.38.7,2.81,1.27,4.28,1.72,2.23.69,4.51,1.08,6.84,1.2.29.01.58.03.86.03h1.09c.36,0,.72-.03,1.08-.06.79-.08,1.58-.13,2.36-.23,1.66-.21,3.29-.61,4.88-1.14,1.44-.48,2.82-1.08,4.16-1.79,2.27-1.21,4.33-2.71,6.19-4.48.93-.88,1.79-1.83,2.59-2.84,1.43-1.8,2.63-3.74,3.59-5.83.86-1.89,1.48-3.86,1.86-5.9.04-.18.05-.37.08-.57h-11.12v5.79c0,.33,0,.65,0,.98-.02.72-.24,1.38-.66,1.96-1.16,1.56-2.73,2.12-4.62,1.82-1.05-.16-1.89-.7-2.58-1.49-.54-.62-.9-1.33-.94-2.17-.01-.26,0-.53,0-.8,0-.86,0-1.73,0-2.59,0-1.03-.02-2.07-.04-3.1,0-.09,0-.17-.02-.26-.03-.15-.11-.24-.27-.25-.09,0-.17-.01-.26-.01-.61,0-1.23.01-1.84.02-1.69.01-3.37.03-5.06.04-1.01,0-2.03,0-3.05.02-.12,0-.24.03-.37.05-.01.14-.03.25-.03.37-.01,2.02-.03,4.04-.04,6.06,0,.56-.12,1.08-.32,1.59-.67,1.62-2.19,2.51-3.88,2.6-.95.05-1.84-.18-2.65-.68-1.28-.79-1.99-1.96-1.99-3.45-.01-7.26,0-14.53.04-21.79,0-1.71.89-2.92,2.4-3.65,1.27-.62,2.6-.62,3.89-.03,1.6.74,2.49,1.99,2.5,3.79,0,.5-.03.99-.03,1.49,0,.75,0,1.5,0,2.24,0,1.01.02,2.01.04,3.02,0,.06.02.13.03.18h10.96c0-.12,0-.23,0-.33-.01-1.26-.03-2.53-.04-3.79,0-.78.02-1.57.04-2.35,0-.15,0-.31,0-.46,0-.78.17-1.52.6-2.18.8-1.23,1.97-1.86,3.39-1.99,1.45-.14,2.72.3,3.74,1.37.63.66,1.01,1.45,1.05,2.36.03.69,0,1.38,0,2.07,0,1.53,0,3.07,0,4.6,0,.24.02.49.03.73h11.42v-.16c-.16-.93-.29-1.82-.47-2.7-.42-2.07-1.12-4.05-2.03-5.96-.67-1.4-1.45-2.74-2.34-4.01-1.38-1.98-3-3.75-4.83-5.32-2.12-1.81-4.46-3.27-7.02-4.37-1.91-.82-3.9-1.42-5.95-1.79-1.56-.29-3.14-.42-4.73-.45-.05,0-.09,0-.14,0-.4,0-.81.03-1.21.04"/>
    </clipPath>
    <linearGradient id="linear-gradient" x1="63.24" y1="244.72" x2="63.95" y2="244.72" gradientTransform="translate(4208.75 -15986.67) rotate(-180) scale(65.45 -65.45)" gradientUnits="userSpaceOnUse">
      <stop offset="0" stop-color="#23b0e6"/>
      <stop offset="1" stop-color="#2e67b1"/>
    </linearGradient>
    <clipPath id="clippath-1">
      <path class="cls-3" d="M57.98,12.34h.38c.08,0,.16,0,.24,0,.08,0,.15.02.21.05.06.03.12.07.16.12.04.05.06.13.06.22s-.02.17-.06.22c-.04.05-.09.09-.16.12-.06.03-.14.04-.21.05-.08,0-.16.01-.24.01h-.38v-.79ZM57.46,11.91v2.81h.52v-1.15h.38l.7,1.15h.54l-.73-1.19c.19-.02.35-.09.48-.22.13-.12.19-.31.19-.56,0-.27-.08-.48-.24-.63-.16-.15-.41-.22-.75-.22h-1.08ZM57.62,15.19c-.25-.11-.46-.25-.64-.43-.18-.18-.33-.4-.43-.64-.11-.25-.16-.51-.16-.79s.05-.54.16-.79c.11-.25.25-.46.43-.64.18-.18.4-.33.64-.43.25-.11.51-.16.79-.16s.54.05.79.16c.25.11.46.25.64.43.18.18.33.4.43.64.11.25.16.51.16.79s-.05.54-.16.79c-.11.25-.25.46-.43.64-.18.18-.4.33-.64.43-.25.1-.51.16-.79.16s-.54-.05-.79-.16M57.45,11.07c-.3.13-.56.31-.78.53-.22.22-.4.48-.53.78-.13.3-.19.62-.19.96s.06.66.19.96c.13.3.31.56.53.78.22.22.48.4.78.53.3.13.62.19.95.19s.66-.07.96-.19c.3-.13.56-.31.78-.53.22-.22.4-.48.53-.78.13-.3.19-.62.19-.96s-.06-.66-.19-.96-.31-.56-.53-.78c-.22-.22-.48-.4-.78-.53-.3-.13-.62-.19-.96-.19s-.66.07-.95.19"/>
    </clipPath>
    <linearGradient id="linear-gradient-2" x1="47.01" y1="263.79" x2="47.71" y2="263.79" gradientTransform="translate(-297.81 1997.3) scale(7.52 -7.52)" xlink:href="#linear-gradient"/>
  </defs>
  <g class="cls-6">
    <rect class="cls-5" x="-8.4" y="-7.71" width="78.81" height="78.82" transform="translate(-13.33 30.83) rotate(-44.5)"/>
  </g>
  <g class="cls-4">
    <rect class="cls-1" x="55.95" y="10.87" width="4.92" height="4.92"/>
  </g>
  <g>
    <path class="cls-2" d="M62.99,27.52c-.08-.08-.13-.19-.13-.33v-3.51c0-.14.04-.25.13-.33.08-.08.19-.12.33-.12s.25.04.33.12c.08.08.12.19.12.33v1.33h1.88v-1.33c0-.14.04-.25.13-.33s.19-.12.33-.12.24.04.32.12c.08.08.12.19.12.33v3.52c0,.13-.04.24-.13.32-.08.08-.19.12-.33.12s-.24-.04-.33-.12c-.08-.08-.13-.19-.13-.32v-1.45h-1.88v1.45c0,.13-.04.24-.12.33-.08.08-.19.12-.33.12s-.24-.04-.33-.12Z"/>
    <path class="cls-2" d="M67.47,27.49c-.08-.08-.12-.2-.12-.34v-3.4c0-.15.04-.27.12-.35.08-.08.2-.12.34-.12h2.32c.11,0,.19.03.26.1.07.07.1.16.1.27s-.03.2-.1.27c-.07.07-.16.1-.26.1h-1.89v1.02h1.7c.11,0,.19.03.26.1.07.07.1.16.1.27s-.03.2-.1.27-.16.1-.27.1h-1.7v1.09h1.93c.11,0,.21.03.27.1s.1.16.1.27-.03.2-.1.27c-.07.07-.16.11-.27.11h-2.35c-.15,0-.26-.04-.34-.12Z"/>
    <path class="cls-2" d="M72.36,27.53c-.08-.08-.12-.19-.12-.32v-1.22l-1.28-2.03c-.07-.11-.1-.21-.1-.32,0-.11.04-.21.13-.29.08-.08.19-.12.32-.12.07,0,.14.02.2.06.06.04.12.11.18.2l1.01,1.65,1.02-1.65c.05-.09.11-.15.17-.2s.13-.06.2-.06c.13,0,.23.04.31.11.08.08.12.17.12.28,0,.09-.03.2-.1.31l-1.28,2.04v1.22c0,.13-.04.24-.12.32-.08.08-.19.12-.33.12s-.24-.04-.33-.12Z"/>
    <path class="cls-2" d="M63.59,33.78c-.25-.1-.44-.24-.58-.44-.07-.09-.12-.19-.17-.3s-.07-.22-.07-.31c0-.07.02-.12.06-.16.04-.04.1-.06.16-.06.05,0,.1.02.13.05.04.03.07.08.1.16.09.27.23.47.44.6s.46.19.78.19.57-.07.77-.2c.2-.14.3-.32.3-.56v-.05c0-.15-.04-.28-.13-.38s-.22-.19-.4-.25c-.18-.07-.41-.13-.69-.17-.5-.09-.86-.23-1.08-.41-.22-.19-.34-.44-.34-.76v-.05c0-.23.06-.43.19-.61.12-.18.3-.32.53-.43.23-.1.49-.16.77-.16.34,0,.63.06.87.18.24.12.42.3.54.54.03.05.06.11.08.16.02.06.03.11.03.17,0,.06-.02.11-.06.16s-.09.06-.17.06c-.06,0-.1-.01-.14-.04-.04-.03-.07-.07-.1-.12-.08-.23-.21-.4-.39-.52-.18-.11-.4-.17-.67-.17-.29,0-.53.07-.7.2-.17.14-.26.32-.26.55v.04c0,.14.04.26.11.36.07.1.19.17.35.24.16.06.37.12.65.16.51.09.9.22,1.15.41.25.19.38.45.38.8v.05c0,.24-.07.45-.2.64s-.32.33-.56.44c-.24.11-.52.16-.83.16s-.6-.05-.84-.15Z"/>
    <path class="cls-2" d="M66.82,33.78s-.07-.11-.07-.2v-3.79c0-.09.02-.16.07-.2.05-.04.11-.07.2-.07h2.39c.07,0,.12.02.16.06.04.04.06.09.06.16,0,.06-.02.11-.06.16-.04.04-.09.06-.15.06h-2.15v1.46h1.95c.07,0,.12.02.16.06.04.04.06.09.06.15,0,.07-.02.12-.06.16s-.09.06-.16.06h-1.95v1.56h2.17c.07,0,.12.02.16.06.04.04.06.09.06.16s-.02.12-.06.16c-.04.04-.09.06-.16.06h-2.42c-.09,0-.15-.02-.2-.07Z"/>
    <path class="cls-2" d="M70.49,33.81s-.07-.11-.07-.18v-3.84c0-.09.02-.16.07-.2.05-.04.11-.07.2-.07h1.45c.28,0,.53.05.75.14.22.1.38.24.5.42.12.19.18.41.18.67v.11c0,.36-.11.65-.34.86-.23.21-.53.33-.92.36l.1-.21,1.04,1.62s.05.1.05.15c0,.07-.02.13-.07.17-.04.04-.11.07-.18.07-.1,0-.17-.04-.23-.13l-1.06-1.65h-1.04v1.53c0,.07-.02.13-.07.18s-.11.07-.19.07c-.07,0-.13-.02-.18-.07ZM72.79,31.45c.16-.14.25-.33.25-.59v-.11c0-.26-.08-.46-.25-.59s-.39-.2-.67-.2h-1.18v1.7h1.18c.28,0,.51-.07.67-.2Z"/>
    <path class="cls-2" d="M75.45,33.81c-.06-.05-.11-.11-.14-.19l-1.44-3.77s-.02-.09-.02-.12c0-.07.02-.12.07-.16.05-.04.11-.07.19-.07.07,0,.12.02.16.05.04.03.07.08.09.14l1.33,3.57,1.31-3.57c.02-.06.05-.11.09-.14s.09-.05.15-.05c.08,0,.15.02.19.07.05.04.07.1.07.16,0,.04,0,.08-.02.12l-1.44,3.78c-.03.08-.08.14-.14.19s-.14.07-.22.07-.16-.02-.22-.07Z"/>
    <path class="cls-2" d="M78.19,33.81s-.07-.11-.07-.19v-3.87c0-.08.02-.14.07-.19.05-.05.11-.07.19-.07.08,0,.15.02.19.07.05.05.07.11.07.19v3.87c0,.08-.02.14-.07.19s-.11.07-.19.07-.14-.02-.19-.07Z"/>
    <path class="cls-2" d="M80.36,33.66c-.3-.18-.53-.43-.69-.76s-.24-.7-.24-1.12v-.17c0-.42.08-.79.25-1.12.16-.33.4-.58.69-.76.3-.18.64-.27,1.02-.27.41,0,.76.1,1.04.29.28.19.48.44.59.74.02.05.03.09.04.13,0,.04.01.08.01.12,0,.06-.02.11-.06.16-.04.04-.1.07-.18.07-.06,0-.1-.02-.14-.05-.04-.03-.07-.09-.11-.16-.1-.28-.25-.49-.45-.64s-.45-.22-.74-.22-.55.07-.76.22c-.21.14-.38.35-.49.6s-.17.55-.17.89v.17c0,.33.06.63.17.88.12.26.28.46.5.6.22.14.47.22.76.22.31,0,.57-.08.77-.24.2-.16.35-.38.44-.66.04-.09.07-.16.11-.19.04-.03.09-.05.16-.05.07,0,.13.02.17.06.04.04.06.1.06.16,0,.04,0,.08-.02.12-.01.04-.03.09-.05.14-.1.32-.3.59-.59.79s-.65.31-1.06.31c-.39,0-.73-.09-1.02-.27Z"/>
    <path class="cls-2" d="M83.86,33.78s-.07-.11-.07-.2v-3.79c0-.09.02-.16.07-.2.05-.04.11-.07.2-.07h2.39c.07,0,.12.02.16.06.04.04.06.09.06.16,0,.06-.02.11-.06.16-.04.04-.09.06-.15.06h-2.15v1.46h1.95c.07,0,.12.02.16.06.04.04.06.09.06.15,0,.07-.02.12-.06.16s-.09.06-.16.06h-1.95v1.56h2.17c.07,0,.12.02.16.06.04.04.06.09.06.16s-.02.12-.06.16c-.04.04-.09.06-.16.06h-2.42c-.09,0-.15-.02-.2-.07Z"/>
    <path class="cls-2" d="M63.68,39.9c-.29-.18-.52-.44-.68-.76-.16-.33-.24-.7-.24-1.12v-.17c0-.41.08-.79.25-1.11.16-.33.4-.58.7-.77.3-.18.65-.27,1.05-.27s.74.1,1.02.29c.29.2.5.45.62.77.03.09.05.15.05.2,0,.07-.02.12-.07.16-.04.04-.1.06-.16.06-.06,0-.1-.02-.14-.05-.04-.03-.08-.08-.11-.15-.1-.27-.25-.48-.45-.63-.2-.15-.45-.23-.76-.23s-.56.07-.78.22c-.22.15-.39.35-.5.6-.12.26-.18.55-.18.88v.17c0,.33.06.63.18.89.12.26.28.46.5.6.22.14.47.21.76.21s.52-.06.72-.17c.2-.12.35-.27.45-.47.1-.2.15-.42.15-.68v-.11h-1.22c-.07,0-.12-.02-.16-.06-.04-.04-.06-.09-.06-.16,0-.06.02-.11.06-.15.04-.04.09-.06.16-.06h1.41c.09,0,.15.02.2.07.05.05.07.11.07.2v1.78c0,.07-.02.12-.06.16s-.09.06-.16.06c-.06,0-.11-.02-.15-.05-.04-.03-.06-.08-.07-.14l-.04-.57c-.11.24-.28.43-.52.58-.24.15-.52.23-.84.23-.38,0-.71-.09-1-.27Z"/>
    <path class="cls-2" d="M67.4,40.05s-.07-.11-.07-.18v-3.84c0-.09.02-.16.07-.2.05-.04.11-.07.2-.07h1.45c.28,0,.53.05.75.14.22.1.38.24.5.42.12.19.18.41.18.67v.11c0,.36-.11.65-.34.86-.23.21-.53.33-.92.36l.1-.21,1.04,1.62s.05.1.05.15c0,.07-.02.13-.07.17-.04.04-.11.07-.18.07-.1,0-.17-.04-.23-.13l-1.06-1.65h-1.04v1.53c0,.07-.02.13-.07.18s-.11.07-.19.07c-.07,0-.13-.02-.18-.07ZM69.7,37.7c.16-.14.25-.33.25-.59v-.11c0-.26-.08-.46-.25-.59s-.39-.2-.67-.2h-1.18v1.7h1.18c.28,0,.51-.07.67-.2Z"/>
    <path class="cls-2" d="M71.87,39.9c-.3-.18-.53-.43-.7-.76-.16-.32-.25-.7-.25-1.13v-.17c0-.43.08-.8.25-1.13.16-.33.4-.58.7-.76.3-.18.65-.27,1.06-.27s.76.09,1.06.27c.3.18.54.43.7.76.16.33.25.7.25,1.13v.17c0,.43-.08.8-.25,1.13-.16.32-.4.58-.7.76-.3.18-.66.27-1.06.27s-.75-.09-1.06-.27ZM73.71,39.51c.22-.14.39-.34.51-.59.12-.26.18-.56.18-.9v-.17c0-.34-.06-.64-.18-.9-.12-.26-.29-.46-.51-.6-.22-.14-.48-.21-.79-.21s-.56.07-.78.21c-.22.14-.39.34-.51.6-.12.26-.18.56-.18.9v.17c0,.34.06.64.18.9.12.26.29.45.51.59.22.14.48.21.78.21s.57-.07.79-.21Z"/>
    <path class="cls-2" d="M76.09,39.73c-.29-.3-.43-.72-.43-1.26v-2.47c0-.08.02-.14.07-.19.05-.05.11-.07.19-.07s.14.02.18.07c.04.05.07.11.07.19v2.46c0,.41.1.73.3.94.2.21.49.32.87.32s.67-.11.87-.32c.2-.22.3-.53.3-.95v-2.45c0-.08.02-.14.07-.19.05-.05.11-.07.19-.07s.14.02.19.07c.05.05.07.11.07.19v2.47c0,.54-.14.95-.43,1.25-.29.3-.7.45-1.25.45s-.96-.15-1.25-.45Z"/>
    <path class="cls-2" d="M80.04,40.05s-.07-.11-.07-.18v-3.84c0-.09.02-.16.07-.2.05-.04.11-.07.2-.07h1.38c.28,0,.53.05.75.14.22.1.38.24.5.42.12.19.18.41.18.67v.11c0,.26-.06.48-.18.67-.12.19-.29.33-.5.42-.22.1-.47.14-.75.14h-1.14v1.53c0,.07-.02.13-.07.18s-.11.07-.19.07c-.07,0-.13-.02-.18-.07ZM82.28,37.7c.16-.14.25-.33.25-.59v-.11c0-.26-.08-.46-.25-.59s-.39-.2-.67-.2h-1.12v1.7h1.12c.28,0,.51-.07.67-.2Z"/>
  </g>
</svg>